G04 Layer: BottomSilkscreenLayer*
G04 EasyEDA v6.5.29, 2023-07-22 16:25:31*
G04 1a0e516d437348df98ebed95a4f5673d,63364df06a3448e09d62fec64a914f60,10*
G04 Gerber Generator version 0.2*
G04 Scale: 100 percent, Rotated: No, Reflected: No *
G04 Dimensions in millimeters *
G04 leading zeros omitted , absolute positions ,4 integer and 5 decimal *
%FSLAX45Y45*%
%MOMM*%

%ADD10C,0.1530*%

%LPD*%
D10*
X2686050Y5358637D02*
G01*
X2686050Y5263134D01*
X2717800Y5358637D02*
G01*
X2654045Y5358637D01*
X2619502Y5326887D02*
G01*
X2592324Y5263134D01*
X2565145Y5326887D02*
G01*
X2592324Y5263134D01*
X2601468Y5245100D01*
X2610611Y5235955D01*
X2619502Y5231384D01*
X2624074Y5231384D01*
X2535174Y5326887D02*
G01*
X2535174Y5231384D01*
X2535174Y5313171D02*
G01*
X2526029Y5322315D01*
X2516886Y5326887D01*
X2503170Y5326887D01*
X2494279Y5322315D01*
X2485136Y5313171D01*
X2480563Y5299710D01*
X2480563Y5290565D01*
X2485136Y5276850D01*
X2494279Y5267705D01*
X2503170Y5263134D01*
X2516886Y5263134D01*
X2526029Y5267705D01*
X2535174Y5276850D01*
X2450591Y5299710D02*
G01*
X2395981Y5299710D01*
X2395981Y5308600D01*
X2400554Y5317744D01*
X2405125Y5322315D01*
X2414270Y5326887D01*
X2427731Y5326887D01*
X2436875Y5322315D01*
X2446020Y5313171D01*
X2450591Y5299710D01*
X2450591Y5290565D01*
X2446020Y5276850D01*
X2436875Y5267705D01*
X2427731Y5263134D01*
X2414270Y5263134D01*
X2405125Y5267705D01*
X2395981Y5276850D01*
X2295906Y5358637D02*
G01*
X2273300Y5263134D01*
X2250440Y5358637D02*
G01*
X2273300Y5263134D01*
X2250440Y5358637D02*
G01*
X2227834Y5263134D01*
X2204974Y5358637D02*
G01*
X2227834Y5263134D01*
X2120645Y5326887D02*
G01*
X2120645Y5263134D01*
X2120645Y5313171D02*
G01*
X2129536Y5322315D01*
X2138679Y5326887D01*
X2152395Y5326887D01*
X2161540Y5322315D01*
X2170429Y5313171D01*
X2175002Y5299710D01*
X2175002Y5290565D01*
X2170429Y5276850D01*
X2161540Y5267705D01*
X2152395Y5263134D01*
X2138679Y5263134D01*
X2129536Y5267705D01*
X2120645Y5276850D01*
X2076958Y5358637D02*
G01*
X2076958Y5281421D01*
X2072386Y5267705D01*
X2063241Y5263134D01*
X2054097Y5263134D01*
X2090420Y5326887D02*
G01*
X2058670Y5326887D01*
X1969515Y5313171D02*
G01*
X1978659Y5322315D01*
X1987804Y5326887D01*
X2001520Y5326887D01*
X2010409Y5322315D01*
X2019554Y5313171D01*
X2024125Y5299710D01*
X2024125Y5290565D01*
X2019554Y5276850D01*
X2010409Y5267705D01*
X2001520Y5263134D01*
X1987804Y5263134D01*
X1978659Y5267705D01*
X1969515Y5276850D01*
X1939543Y5358637D02*
G01*
X1939543Y5263134D01*
X1939543Y5308600D02*
G01*
X1926081Y5322315D01*
X1916937Y5326887D01*
X1903221Y5326887D01*
X1894078Y5322315D01*
X1889505Y5308600D01*
X1889505Y5263134D01*
X1789684Y5326887D02*
G01*
X1762252Y5263134D01*
X1735073Y5326887D02*
G01*
X1762252Y5263134D01*
X1659636Y5358637D02*
G01*
X1705102Y5295137D01*
X1636776Y5295137D01*
X1659636Y5358637D02*
G01*
X1659636Y5263134D01*
M02*
