G04 Layer: TopSolderMaskLayer*
G04 EasyEDA v6.5.29, 2023-07-22 16:25:31*
G04 1a0e516d437348df98ebed95a4f5673d,63364df06a3448e09d62fec64a914f60,10*
G04 Gerber Generator version 0.2*
G04 Scale: 100 percent, Rotated: No, Reflected: No *
G04 Dimensions in millimeters *
G04 leading zeros omitted , absolute positions ,4 integer and 5 decimal *
%FSLAX45Y45*%
%MOMM*%

%AMMACRO1*1,1,$1,$2,$3*1,1,$1,$4,$5*1,1,$1,0-$2,0-$3*1,1,$1,0-$4,0-$5*20,1,$1,$2,$3,$4,$5,0*20,1,$1,$4,$5,0-$2,0-$3,0*20,1,$1,0-$2,0-$3,0-$4,0-$5,0*20,1,$1,0-$4,0-$5,$2,$3,0*4,1,4,$2,$3,$4,$5,0-$2,0-$3,0-$4,0-$5,$2,$3,0*%
%ADD10O,2.3516082000000003X0.7315962*%
%ADD11MACRO1,0.1016X-0.864X0.7425X0.864X0.7425*%
%ADD12MACRO1,0.1016X-0.864X-0.7425X0.864X-0.7425*%
%ADD13MACRO1,0.1016X0.864X-0.7425X-0.864X-0.7425*%
%ADD14MACRO1,0.1016X0.864X0.7425X-0.864X0.7425*%
%ADD15MACRO1,0.1016X0.6X0.55X0.6X-0.55*%
%ADD16MACRO1,0.1016X-0.6X-0.55X-0.6X0.55*%
%ADD17MACRO1,0.1016X-1.0232X-0.81X-1.0232X0.81*%
%ADD18MACRO1,0.1016X1.0232X-0.81X1.0232X0.81*%
%ADD19C,1.6764*%
%ADD20MACRO1,0.1016X-0.85X-0.85X-0.85X0.85*%
%ADD21MACRO1,0.1016X0.8505X-0.6038X-0.8505X-0.6038*%
%ADD22MACRO1,0.1016X0.8505X0.6038X-0.8505X0.6038*%
%ADD23MACRO1,0.102X0.8505X0.604X0.8505X-0.604*%
%ADD24MACRO1,0.1016X-0.8505X-0.6038X0.8505X-0.6038*%
%ADD25MACRO1,0.1016X-0.6038X-0.8505X-0.6038X0.8505*%
%ADD26MACRO1,0.1016X0.6038X-0.8505X0.6038X0.8505*%
%ADD27MACRO1,0.1016X-0.7X-0.1999X-0.7X0.1999*%
%ADD28R,1.3015X1.5016*%
%ADD29MACRO1,0.1016X-0.5999X-0.7X-0.5999X0.7*%
%ADD30O,2.1015960000000002X1.3014960000000002*%
%ADD31R,1.6764X1.6764*%
%ADD32C,1.6256*%

%LPD*%
D10*
G01*
X4180890Y5778500D03*
G01*
X4180890Y5651500D03*
G01*
X4180890Y5524500D03*
G01*
X4180890Y5397500D03*
G01*
X4886909Y5778500D03*
G01*
X4886909Y5651500D03*
G01*
X4886909Y5524500D03*
G01*
X4886909Y5397500D03*
D11*
G01*
X3022600Y5517649D03*
D12*
G01*
X3022600Y5836150D03*
D13*
G01*
X3302000Y5645650D03*
D14*
G01*
X3302000Y5327149D03*
D15*
G01*
X2514592Y5516105D03*
G01*
X2514592Y5863094D03*
D16*
G01*
X2755907Y5647194D03*
G01*
X2755907Y5300205D03*
D17*
G01*
X1737354Y5816597D03*
D18*
G01*
X2250450Y5816597D03*
D17*
G01*
X1737354Y5524497D03*
D18*
G01*
X2250450Y5524497D03*
D19*
G01*
X5943600Y5334000D03*
D20*
G01*
X5943598Y5588001D03*
D19*
G01*
X5448300Y5575300D03*
D20*
G01*
X5448298Y5829301D03*
D21*
G01*
X3556000Y5850176D03*
D22*
G01*
X3556000Y5554423D03*
D23*
G01*
X3822692Y5313089D03*
D24*
G01*
X3822700Y5608876D03*
D25*
G01*
X5583476Y5334000D03*
D26*
G01*
X5287723Y5334000D03*
D25*
G01*
X6066076Y5829300D03*
D26*
G01*
X5770323Y5829300D03*
D27*
G01*
X6276002Y5447792D03*
G01*
X6276002Y5512816D03*
G01*
X6276002Y5577840D03*
G01*
X6276002Y5642864D03*
G01*
X6276002Y5707888D03*
D28*
G01*
X6301028Y5252846D03*
D29*
G01*
X6301031Y5902832D03*
D30*
G01*
X6550964Y5297830D03*
G01*
X6550990Y5857849D03*
D19*
G01*
X1447800Y5829300D03*
G01*
X1447800Y5575300D03*
D31*
G01*
X1447800Y5321300D03*
D32*
G01*
X5105400Y5842000D03*
G01*
X4178300Y5283200D03*
G01*
X3937000Y5842000D03*
G01*
X5105400Y5324982D03*
G01*
X5105400Y5499988D03*
G01*
X5105400Y5669991D03*
M02*
